<svg id="Capa_1" data-name="Capa 1" xmlns="http://www.w3.org/2000/svg" viewBox="0 0 211.78 211.78"><defs><style>.cls-1{fill:none;stroke:#1d1d1b;stroke-miterlimit:10;stroke-width:4px;}.cls-2{fill:#010101;}</style></defs><rect class="cls-1" x="2" y="2" width="207.78" height="207.78" rx="40"/><path class="cls-2" d="M142.72,89.46H88.47a33,33,0,0,1,0-65.9h54.25a33,33,0,0,1,0,65.9ZM88.47,36.07a20.46,20.46,0,0,0,0,40.88h54.25a20.46,20.46,0,0,0,0-40.88Z" transform="translate(-3.26 -4)"/><path class="cls-2" d="M115.2,142.81H88.47a32.93,32.93,0,0,1,0-65.86,6.26,6.26,0,1,1,0,12.51,20.42,20.42,0,0,0,0,40.84h20.47V83.21a6.26,6.26,0,1,1,12.51,0v53.35A6.25,6.25,0,0,1,115.2,142.81Z" transform="translate(-3.26 -4)"/><path class="cls-2" d="M88.87,196.21a33,33,0,0,1-2.56-65.91c.85,0,1.71,0,2.56,0a6.26,6.26,0,1,1,0,12.51,20.47,20.47,0,1,0,20.42,20.52V136.56a6.26,6.26,0,1,1,12.51,0v26.72A33,33,0,0,1,88.87,196.21Z" transform="translate(-3.26 -4)"/><path class="cls-2" d="M142.27,143.66a33.38,33.38,0,1,1,33.38-33.38,33.38,33.38,0,0,1-33.38,33.38Zm0-54.2a20.87,20.87,0,1,0,20.87,20.87v0A20.87,20.87,0,0,0,142.27,89.46Z" transform="translate(-3.26 -4)"/><path class="cls-2" d="M115.2,89.46h0a6.25,6.25,0,0,1-6.21-6.3h0l.4-53.4a6.25,6.25,0,0,1,6.21-6.2h0a6.25,6.25,0,0,1,6.2,6.3h0l-.4,53.4A6.3,6.3,0,0,1,115.2,89.46Z" transform="translate(-3.26 -4)"/></svg>