<svg id="Capa_1" data-name="Capa 1" xmlns="http://www.w3.org/2000/svg" viewBox="0 0 211.78 211.78"><defs><style>.cls-1{fill:none;stroke:#1d1d1b;stroke-miterlimit:10;stroke-width:4px;}.cls-2{fill:#010101;}</style></defs><rect class="cls-1" x="2" y="2" width="207.78" height="207.78" rx="40"/><g id="layer1"><path class="cls-2" d="M50.42,99.92a16.32,16.32,0,0,0-4.7-3.41,14.66,14.66,0,0,0-6.22-1.17A14.79,14.79,0,0,0,34,96.4a13.78,13.78,0,0,0-4.55,2.93,13.64,13.64,0,0,0-3.12,4.61,16.55,16.55,0,0,0,0,12,13.52,13.52,0,0,0,3.12,4.57,14.53,14.53,0,0,0,4.61,3,15.07,15.07,0,0,0,5.63,1,15.74,15.74,0,0,0,5.53-.92,13.06,13.06,0,0,0,4.07-2.44,11,11,0,0,0,2-2.56,13.91,13.91,0,0,0,1.43-3.43H39.38v-7.57H61.16a14.88,14.88,0,0,1,.31,1.87,17.71,17.71,0,0,1,.13,2.18,24.4,24.4,0,0,1-1.33,8.21,19.07,19.07,0,0,1-4,6.59,20.61,20.61,0,0,1-7.14,4.88,24.63,24.63,0,0,1-9.54,1.73,23.62,23.62,0,0,1-9.09-1.73A24,24,0,0,1,23,126.52,23.6,23.6,0,0,1,18,119.23,22.58,22.58,0,0,1,16.11,110,23.12,23.12,0,0,1,18,100.67,22.28,22.28,0,0,1,23,93.36a23.09,23.09,0,0,1,7.48-4.8,23.77,23.77,0,0,1,9.08-1.74,23.74,23.74,0,0,1,9.72,1.88,22.34,22.34,0,0,1,7.29,5.21Z" transform="translate(-3.26 -4)"/><path class="cls-2" d="M106.37,120.24a11.65,11.65,0,0,1-4.26,9.39,16.33,16.33,0,0,1-10.52,3.47,15.65,15.65,0,0,1-9.72-3.22,16.5,16.5,0,0,1-5.8-8.77l5.43-2.26a13.82,13.82,0,0,0,1.54,3.6,11.49,11.49,0,0,0,2.31,2.75,10.76,10.76,0,0,0,2.93,1.8,9,9,0,0,0,3.41.66,9.73,9.73,0,0,0,6.38-2,6.54,6.54,0,0,0,2.46-5.34,6.44,6.44,0,0,0-2-4.75c-1.26-1.26-3.66-2.53-7.16-3.72s-5.75-2.15-6.63-2.59c-4.7-2.41-7-5.92-7-10.59a10.78,10.78,0,0,1,3.88-8.33,14.31,14.31,0,0,1,9.72-3.47A14.85,14.85,0,0,1,100,89.44a12.37,12.37,0,0,1,5,6.38L99.72,98a7.87,7.87,0,0,0-2.93-4.1,9.44,9.44,0,0,0-11,.22,5.38,5.38,0,0,0-2.26,4.48,5.23,5.23,0,0,0,1.8,3.94q2,1.67,8.59,3.95c4.48,1.5,7.69,3.41,9.62,5.63A12.27,12.27,0,0,1,106.37,120.24Z" transform="translate(-3.26 -4)"/><path class="cls-2" d="M137.89,132.07h-5.42v-4.2h-.26a10.39,10.39,0,0,1-4,3.73,11.66,11.66,0,0,1-5.59,1.5c-3.72,0-6.56-1.07-8.55-3.19s-3-5.14-3-9V101.78h5.68v18.68c.13,5,2.63,7.41,7.48,7.41a7,7,0,0,0,5.67-2.74,9.92,9.92,0,0,0,2.28-6.58V101.78h5.68Z" transform="translate(-3.26 -4)"/><path class="cls-2" d="M150.86,91.34a3.83,3.83,0,0,1-1.17,2.83,4,4,0,0,1-5.68,0,4,4,0,0,1,0-5.66,4,4,0,0,1,5.68,0A3.89,3.89,0,0,1,150.86,91.34Zm-1.17,10.44v30.29H144V101.78Z" transform="translate(-3.26 -4)"/><path class="cls-2" d="M167.14,132.57a8.77,8.77,0,0,1-6.15-2.25,8.38,8.38,0,0,1-2.49-6.38V107h-5.33v-5.21h5.29V92.5h5.68v9.28h7.42V107h-7.42v15.08c0,2,.38,3.38,1.17,4.1a3.8,3.8,0,0,0,2.65,1.07,6.61,6.61,0,0,0,1.33-.15,7.39,7.39,0,0,0,1.2-.41l1.79,5.08A14.72,14.72,0,0,1,167.14,132.57Z" transform="translate(-3.26 -4)"/><path class="cls-2" d="M188.41,133.05a14.42,14.42,0,0,1-11-4.58,16.14,16.14,0,0,1-4.33-11.55,16.34,16.34,0,0,1,4.2-11.51A14,14,0,0,1,188,100.8c4.48,0,8.08,1.45,10.73,4.36s4,7,4,12.21l-.07.63H178.89a9.89,9.89,0,0,0,3,7.16,9.53,9.53,0,0,0,6.8,2.71c3.62,0,6.47-1.79,8.52-5.42l5.08,2.46a15.24,15.24,0,0,1-5.64,6,15.93,15.93,0,0,1-8.2,2.14Zm-9.09-19.79h17.39a7.5,7.5,0,0,0-2.56-5.25,8.93,8.93,0,0,0-6.21-2.08,8.15,8.15,0,0,0-5.52,2A9.65,9.65,0,0,0,179.32,113.26Z" transform="translate(-3.26 -4)"/></g></svg>