<svg id="Capa_1" data-name="Capa 1" xmlns="http://www.w3.org/2000/svg" xmlns:xlink="http://www.w3.org/1999/xlink" viewBox="0 0 211.78 211.78"><defs><style>.cls-1{fill:none;stroke:#1d1d1b;stroke-miterlimit:10;stroke-width:4px;}.cls-2{clip-path:url(#clip-path);}.cls-3{fill:#010101;}</style><clipPath id="clip-path" transform="translate(-3.09 -4.64)"><rect class="cls-1" x="5.09" y="6.64" width="207.78" height="207.78" rx="40"/></clipPath></defs><g class="cls-2"><path class="cls-3" d="M191.61,147.15a3,3,0,0,0-1.81-1.46L180.13,143a3,3,0,0,0-3.52,1.66c-1.8,4.07-5.91,11-9.34,12.21-.77.28-1.8.45-2.16.07-.12-.13-3-3.48,4.65-20.71,10.28-23.28,4.74-43.7-2.48-50.76s-25.59-8.65-35.48-2.84a61.4,61.4,0,0,0-9.23,6.7l1.22-6.62a2.91,2.91,0,0,0-.65-2.45,3,3,0,0,0-2.31-1l-36.07.6A3,3,0,0,0,82,81.93l-5.53,19.82a3,3,0,0,0,.5,2.59,3,3,0,0,0,2.36,1.17H91.11C86,120.72,78.63,141.82,77,145.22c-2.55,2-11.37,8.34-14.82,9.48a11,11,0,0,1-3.84.85c-.09-.38-.21-1.54.47-4.21C61.29,141.73,76,82.85,76,82.85a3,3,0,0,0-2.87-3.68H32.64a3,3,0,0,0-2.91,2.4l-3.68,19.22a3,3,0,0,0,0,1.16,2.91,2.91,0,0,0-.06.6,3,3,0,0,0,3,3H39.88C37,117,29,148.55,28.48,153.27c-.52,4.42-.53,19.18,20.79,23.07,11.34,2.08,20.73-3.16,26.68-8l-.81,4.57a3,3,0,0,0,2.92,3.48h23.32a3,3,0,0,0,2.87-2.23c.12-.46,12.09-47,16.39-57,2.53-5.89,9.27-11.68,15.35-13.18,2-.48,4.72-.72,6.71.9,5.59,4.54,3.24,12.07.11,20-2.62,6.68-10.64,29.38-3.77,41.41,3.5,6.12,10.8,10.42,19.06,11.21.9.09,1.8.13,2.68.13a25.55,25.55,0,0,0,19.57-8.9,63.57,63.57,0,0,0,11.46-19.27A3,3,0,0,0,191.61,147.15Zm-15.76,17.74a19.73,19.73,0,0,1-17.18,6.73c-6.28-.61-12-3.85-14.49-8.26-4.43-7.75-.53-24.4,4.14-36.3,2.82-7.17,7.53-19.16-1.88-26.81a11.88,11.88,0,0,0-7.67-2.59,17.6,17.6,0,0,0-4.2.54c-7.94,2-16.09,8.94-19.37,16.6-4,9.27-13.63,46.09-16.11,55.67H81.59l1.84-10.34a3,3,0,0,0-5.28-2.31C78,158,66,173.37,50.34,170.52c-15.25-2.78-16.56-11.58-16-16.58.49-4.27,9-38,12.2-50.66a3,3,0,0,0-2.87-3.69H32.31l2.78-14.5H69.35c-3.26,13-14.17,56.63-16.25,64.78-.8,3.11-1.54,7.53,1.2,10.08s7.36,1.17,9.76.37c5.43-1.8,17-10.75,17.11-10.84.79-.65,1.87-1.54,16.88-46a3,3,0,0,0-.4-2.68,3,3,0,0,0-2.41-1.23H83.18l3.89-13.94,30.24-.5L115,97.66a3,3,0,0,0,5.21,2.4,60.19,60.19,0,0,1,14.57-12.38c8.32-4.88,23.26-3,28.34,2s10.57,22.94,1.21,44.14c-6.24,14.12-7.41,23-3.57,27.13,2,2.15,5.09,2.69,8.49,1.48,5.32-1.89,9.66-9.19,11.65-13.07l4.1,1.16A61.57,61.57,0,0,1,175.85,164.89Z" transform="translate(-3.09 -4.64)"/><path class="cls-3" d="M61.65,73a14.81,14.81,0,1,0-14.8-14.81A14.83,14.83,0,0,0,61.65,73Zm0-23.7a8.89,8.89,0,1,1-8.88,8.89A8.9,8.9,0,0,1,61.65,49.33Z" transform="translate(-3.09 -4.64)"/></g><rect class="cls-1" x="2" y="2" width="207.78" height="207.78" rx="40"/></svg>