<svg id="Capa_1" data-name="Capa 1" xmlns="http://www.w3.org/2000/svg" xmlns:xlink="http://www.w3.org/1999/xlink" viewBox="0 0 211.78 211.78"><defs><style>.cls-1{fill:none;stroke:#1d1d1b;stroke-miterlimit:10;stroke-width:4px;}.cls-2{clip-path:url(#clip-path);}.cls-3{fill:#010101;}</style><clipPath id="clip-path" transform="translate(-3.26 -4)"><rect class="cls-1" x="5.26" y="6" width="207.78" height="207.78" rx="40"/></clipPath></defs><g class="cls-2"><path class="cls-3" d="M60.06,50.64l.39,43.91.1,11.83L69,98.06l38.29-37.87,11.19,4.28L93.82,92.07l-1.81,2,.73,2.63,17.86,64.13H99.94l-15-50-2.28-7.61-5.88,5.35L61.63,122.48,60,124v36.9H45.47V54.62l14.59-4M65,44.11,40.47,50.8V165.87H65v-39.7l15.16-13.82,16.06,53.52h21L97.56,95.4,127,62.4l-21-8L65.44,94.51,65,44.11Z" transform="translate(-3.26 -4)"/><path class="cls-3" d="M141.58,43.51l30.54,4.77-11.77,75.4L141.58,43.51M135,37.42l26.31,112.39,16.5-105.7L135,37.42Z" transform="translate(-3.26 -4)"/><path class="cls-3" d="M162.26,165.51l2.42,6.83-5.93,3.95-6.25-4.46,3.05-6.32h6.71m3.53-5H152.41l-6.24,12.94,12.49,8.92,12-8-4.91-13.83Z" transform="translate(-3.26 -4)"/></g><rect class="cls-1" x="2" y="2" width="207.78" height="207.78" rx="40"/></svg>