<svg id="Capa_1" data-name="Capa 1" xmlns="http://www.w3.org/2000/svg" xmlns:xlink="http://www.w3.org/1999/xlink" viewBox="0 0 211.78 211.78"><defs><style>.cls-1{fill:none;}.cls-1,.cls-3{stroke:#1d1d1b;stroke-miterlimit:10;stroke-width:4px;}.cls-2{clip-path:url(#clip-path);}.cls-3{fill:#fff;}</style><clipPath id="clip-path" transform="translate(-2.91 -5.27)"><rect class="cls-1" x="4.91" y="7.27" width="207.78" height="207.78" rx="40"/></clipPath></defs><g class="cls-2"><path class="cls-3" d="M173.13,180.12l-45.82,11.25-66.5-24.89,62.78,9.66a3.71,3.71,0,0,0,.47,0,3.05,3.05,0,0,0,3.06-3.07V53.49a3.06,3.06,0,0,0-3.69-3L65.15,62.76a3.06,3.06,0,0,0-2.43,3v83.85L43.11,158a3,3,0,0,0-1.45,1.29l-.41-.15V67.21l86-35,45.86,14.07Z" transform="translate(-2.91 -5.27)"/></g><rect class="cls-1" x="2" y="2" width="207.78" height="207.78" rx="40"/></svg>