<svg id="Capa_1" data-name="Capa 1" xmlns="http://www.w3.org/2000/svg" xmlns:xlink="http://www.w3.org/1999/xlink" viewBox="0 0 211.78 211.78"><defs><style>.cls-1,.cls-3{fill:none;stroke:#1d1d1b;}.cls-1{stroke-miterlimit:10;stroke-width:4px;}.cls-2{clip-path:url(#clip-path);}.cls-3{stroke-linecap:square;stroke-linejoin:bevel;stroke-width:3px;}</style><clipPath id="clip-path" transform="translate(-3.26 -4)"><rect class="cls-1" x="5.26" y="6" width="207.78" height="207.78" rx="40"/></clipPath></defs><g class="cls-2"><path class="cls-3" d="M143.3,91.2c-.65-.17-1.29-.32-1.94-.46q-4.91-.46-9.91-.5A42.07,42.07,0,0,1,101,111.05a42.59,42.59,0,0,1-6.12.45,41.53,41.53,0,0,1-5.82-.41,42.07,42.07,0,0,1-3-82.8c-2.82.27-5.61.67-8.36,1.18a50.91,50.91,0,0,0-26.92,74.87,42.08,42.08,0,1,1-14,81.8,51,51,0,0,0,66.2-19,42.07,42.07,0,0,1,34.63-62.79c.65,0,1.3,0,2,0a42.07,42.07,0,0,1,42,39.34c.07-1,.1-2.08.1-3.13A51,51,0,0,0,143.3,91.2Z" transform="translate(-3.26 -4)"/></g><rect class="cls-1" x="2" y="2" width="207.78" height="207.78" rx="40"/></svg>