<svg id="Capa_1" data-name="Capa 1" xmlns="http://www.w3.org/2000/svg" xmlns:xlink="http://www.w3.org/1999/xlink" viewBox="0 0 211.78 211.78"><defs><style>.cls-1{fill:none;stroke:#1d1d1b;stroke-miterlimit:10;stroke-width:4px;}.cls-2{clip-path:url(#clip-path);}.cls-3{fill:#010101;}</style><clipPath id="clip-path" transform="translate(-3.26 -4)"><rect class="cls-1" x="5.26" y="6" width="207.78" height="207.78" rx="40"/></clipPath></defs><g class="cls-2"><path class="cls-3" d="M196.26,81a2,2,0,0,1,.06-.23,3.09,3.09,0,0,0,0-1c0-.08-.06-.16-.08-.24a3.33,3.33,0,0,0-.16-.51,2.51,2.51,0,0,0-.2-.29s0-.11-.07-.16L172.42,45.79a3,3,0,0,0-1.26-1,3.07,3.07,0,0,0-1.6-1.63l-28.8-12.46a3.17,3.17,0,0,0-1.24-.26H78.79a3.1,3.1,0,0,0-1.24.26L48.74,43.19a3.07,3.07,0,0,0-1.6,1.63,3,3,0,0,0-1.26,1L22.52,78.5s0,.11-.07.16-.14.19-.2.29a5,5,0,0,0-.16.51,2.17,2.17,0,0,0-.07.24,3.09,3.09,0,0,0,0,1,2,2,0,0,0,.06.23,3.12,3.12,0,0,0,.29.79c.05.09.1.18.16.27a1.32,1.32,0,0,0,.12.2l84.09,105.9s.07,0,.09.07a3.09,3.09,0,0,0,.94.75l.18.07a3,3,0,0,0,1.23.29,3.09,3.09,0,0,0,1.24-.29l.17-.07a3,3,0,0,0,.94-.75s.07,0,.09-.07l84.09-105.9a1.32,1.32,0,0,0,.12-.2c.06-.09.11-.18.16-.27A3.14,3.14,0,0,0,196.26,81ZM79.43,36.7h59.44l22.33,9.66L138.73,58.5H79.57L57.1,46.36ZM71,114.57h76.36L109.15,180Zm.12-6.23L82,64.73h54.4l12.66,43.61ZM30.68,77.8,50.59,49.92,75.86,63.58,65.27,105.94l-34.42-28A1.4,1.4,0,0,0,30.68,77.8Zm31.78,33.89a3.16,3.16,0,0,0,.4,1.33l21.7,37.2L38.36,92.05Zm71.28,38.54L155.45,113a3.15,3.15,0,0,0,.39-1.33L180,92.05Zm20.76-45.49-12-41.21,25.17-13.61L187.62,77.8a1.4,1.4,0,0,0-.17.09Z" transform="translate(-3.26 -4)"/></g><rect class="cls-1" x="2" y="2" width="207.78" height="207.78" rx="40"/></svg>