<svg id="Capa_1" data-name="Capa 1" xmlns="http://www.w3.org/2000/svg" xmlns:xlink="http://www.w3.org/1999/xlink" viewBox="0 0 211.78 211.78"><defs><style>.cls-1,.cls-3{fill:none;stroke:#1d1d1b;stroke-miterlimit:10;}.cls-1{stroke-width:4px;}.cls-2{clip-path:url(#clip-path);}.cls-3{stroke-width:6px;}</style><clipPath id="clip-path" transform="translate(-2.91 -5.27)"><rect class="cls-1" x="4.91" y="7.27" width="207.78" height="207.78" rx="40"/></clipPath></defs><g class="cls-2"><path class="cls-3" d="M187.32,55.73l-23.83,112.4c-1.8,7.93-6.49,9.9-13.15,6.17L114,147.54,96.5,164.39c-1.94,1.94-3.56,3.56-7.3,3.56l2.61-37,67.3-60.81c2.93-2.61-.63-4.06-4.54-1.45L71.36,121.09,35.54,109.88c-7.79-2.43-7.93-7.79,1.62-11.53l140.11-54C183.76,41.94,189.43,45.82,187.32,55.73Z" transform="translate(-2.91 -5.27)"/></g><rect class="cls-1" x="2" y="2" width="207.78" height="207.78" rx="40"/></svg>