<svg id="Capa_1" data-name="Capa 1" xmlns="http://www.w3.org/2000/svg" xmlns:xlink="http://www.w3.org/1999/xlink" viewBox="0 0 211.78 211.78"><defs><style>.cls-1{fill:none;stroke:#1d1d1b;stroke-miterlimit:10;stroke-width:4px;}.cls-2{clip-path:url(#clip-path);}.cls-3{fill:#010101;}</style><clipPath id="clip-path" transform="translate(-2.91 -5.27)"><rect class="cls-1" x="4.91" y="7.27" width="207.78" height="207.78" rx="40"/></clipPath></defs><g class="cls-2"><g id="trello_collaboration_group" data-name="trello collaboration group"><path class="cls-3" d="M54.78,43.19a13.6,13.6,0,0,0-13.6,13.59v95.16a13.6,13.6,0,0,0,13.6,13.6h34a13.6,13.6,0,0,0,13.6-13.6V56.78a13.6,13.6,0,0,0-13.6-13.59Zm0,108.75V56.78h34v95.16Z" transform="translate(-2.91 -5.27)"/><path class="cls-3" d="M177.12,111.16V56.78a13.59,13.59,0,0,0-13.59-13.59h-34A13.6,13.6,0,0,0,116,56.78v54.38a13.59,13.59,0,0,0,13.59,13.59h34A13.58,13.58,0,0,0,177.12,111.16ZM129.54,56.78h34v54.38h-34Z" transform="translate(-2.91 -5.27)"/></g></g><rect class="cls-1" x="2" y="2" width="207.78" height="207.78" rx="40"/></svg>